<?xml version="1.0" encoding="UTF-8" standalone="no"?>
<!DOCTYPE svg PUBLIC "-//W3C//DTD SVG 1.1//EN"
 "http://www.w3.org/Graphics/SVG/1.1/DTD/svg11.dtd">
<!-- Generated by graphviz version 2.44.1 (20200629.0846)
 -->
<!-- Pages: 1 -->
<svg width="1410pt" height="1010pt"
 viewBox="0.00 0.00 1410.00 1010.00" xmlns="http://www.w3.org/2000/svg" xmlns:xlink="http://www.w3.org/1999/xlink">
<g id="graph0" class="graph" transform="scale(1 1) rotate(0) translate(4 1006)">
<polygon fill="white" stroke="transparent" points="-4,4 -4,-1006 1406,-1006 1406,4 -4,4"/>
<g id="clust1" class="cluster">
<title>cluster_1</title>
<polygon fill="none" stroke="black" points="8,-8 8,-994 1394,-994 1394,-8 8,-8"/>
</g>
<!-- 67 -->
<g id="67" class="node">
<title>67</title>
<polygon fill="none" stroke="black" points="141,-681 33,-681 33,-609 141,-609 141,-681"/>
<text text-anchor="middle" x="87" y="-644" font-family="Times,serif" font-size="5.00">67: Authentication Service</text>
</g>
<!-- 45 -->
<g id="45" class="node">
<title>45</title>
<polygon fill="none" stroke="black" points="538,-105 430,-105 430,-33 538,-33 538,-105"/>
<text text-anchor="middle" x="484" y="-68" font-family="Times,serif" font-size="5.00">45: Data storage</text>
</g>
<!-- 79 -->
<g id="79" class="node">
<title>79</title>
<polygon fill="none" stroke="black" points="321,-681 213,-681 213,-609 321,-609 321,-681"/>
<text text-anchor="middle" x="267" y="-644" font-family="Times,serif" font-size="5.00">79: Search Service</text>
</g>
<!-- 47 -->
<g id="47" class="node">
<title>47</title>
<polygon fill="none" stroke="black" points="321,-537 213,-537 213,-465 321,-465 321,-537"/>
<text text-anchor="middle" x="267" y="-500" font-family="Times,serif" font-size="5.00">47: Data stream service</text>
</g>
<!-- 79&#45;&gt;47 -->
<g id="83" class="edge">
<title>79&#45;&gt;47</title>
<path fill="none" stroke="black" d="M267,-608.9C267,-590.3 267,-567.23 267,-547.29"/>
<polygon fill="black" stroke="black" points="270.5,-547.19 267,-537.19 263.5,-547.19 270.5,-547.19"/>
</g>
<!-- 80 -->
<g id="80" class="node">
<title>80</title>
<polygon fill="none" stroke="black" points="501,-537 393,-537 393,-465 501,-465 501,-537"/>
<text text-anchor="middle" x="447" y="-500" font-family="Times,serif" font-size="5.00">80: Index service</text>
</g>
<!-- 79&#45;&gt;80 -->
<g id="81" class="edge">
<title>79&#45;&gt;80</title>
<path fill="none" stroke="black" d="M311.49,-608.9C336.59,-589.1 368.09,-564.25 394.41,-543.49"/>
<polygon fill="black" stroke="black" points="396.71,-546.13 402.39,-537.19 392.37,-540.64 396.71,-546.13"/>
</g>
<!-- 43 -->
<g id="43" class="node">
<title>43</title>
<polygon fill="none" stroke="black" points="538,-249 430,-249 430,-177 538,-177 538,-249"/>
<text text-anchor="middle" x="484" y="-212" font-family="Times,serif" font-size="5.00">43: Publication Service</text>
</g>
<!-- 47&#45;&gt;43 -->
<g id="48" class="edge">
<title>47&#45;&gt;43</title>
<path fill="none" stroke="black" d="M274.31,-464.64C285.09,-412.47 304,-321 304,-321 304,-321 369.21,-282.24 421.13,-251.37"/>
<polygon fill="black" stroke="black" points="423.19,-254.22 429.99,-246.1 419.61,-248.2 423.19,-254.22"/>
</g>
<!-- 54 -->
<g id="54" class="node">
<title>54</title>
<polygon fill="none" stroke="black" points="448,-393 340,-393 340,-321 448,-321 448,-393"/>
<text text-anchor="middle" x="394" y="-356" font-family="Times,serif" font-size="5.00">54: Doi Egress Service</text>
</g>
<!-- 47&#45;&gt;54 -->
<g id="57" class="edge">
<title>47&#45;&gt;54</title>
<path fill="none" stroke="black" d="M298.39,-464.9C315.72,-445.53 337.37,-421.32 355.69,-400.84"/>
<polygon fill="black" stroke="black" points="358.47,-402.98 362.53,-393.19 353.25,-398.31 358.47,-402.98"/>
</g>
<!-- 58 -->
<g id="58" class="node">
<title>58</title>
<polygon fill="none" stroke="black" points="501,-681 393,-681 393,-609 501,-609 501,-681"/>
<text text-anchor="middle" x="447" y="-644" font-family="Times,serif" font-size="5.00">58: Library System Service</text>
</g>
<!-- 38 -->
<g id="38" class="node">
<title>38</title>
<polygon fill="none" stroke="black" points="755,-825 647,-825 647,-753 755,-753 755,-825"/>
<text text-anchor="middle" x="701" y="-788" font-family="Times,serif" font-size="5.00">38: Public API</text>
</g>
<!-- 38&#45;&gt;67 -->
<g id="69" class="edge">
<title>38&#45;&gt;67</title>
<path fill="none" stroke="black" d="M646.9,-776.95C513.02,-749.61 177,-681 177,-681 177,-681 165.5,-676.53 150.72,-670.78"/>
<polygon fill="black" stroke="black" points="151.76,-667.43 141.17,-667.07 149.22,-673.95 151.76,-667.43"/>
</g>
<!-- 38&#45;&gt;79 -->
<g id="82" class="edge">
<title>38&#45;&gt;79</title>
<path fill="none" stroke="black" d="M646.87,-771.16C550,-741.03 357,-681 357,-681 357,-681 345.5,-676.53 330.72,-670.78"/>
<polygon fill="black" stroke="black" points="331.76,-667.43 321.17,-667.07 329.22,-673.95 331.76,-667.43"/>
</g>
<!-- 38&#45;&gt;58 -->
<g id="60" class="edge">
<title>38&#45;&gt;58</title>
<path fill="none" stroke="black" d="M646.82,-757.71C606.7,-735.28 551.92,-704.66 509.87,-681.15"/>
<polygon fill="black" stroke="black" points="511.53,-678.07 501.09,-676.24 508.12,-684.18 511.53,-678.07"/>
</g>
<!-- 49 -->
<g id="49" class="node">
<title>49</title>
<polygon fill="none" stroke="black" points="628,-393 520,-393 520,-321 628,-321 628,-393"/>
<text text-anchor="middle" x="574" y="-356" font-family="Times,serif" font-size="5.00">49: DOI Ingress Service</text>
</g>
<!-- 38&#45;&gt;49 -->
<g id="53" class="edge">
<title>38&#45;&gt;49</title>
<path fill="none" stroke="black" d="M671.53,-752.96C645.28,-721.76 611,-681 611,-681 611,-681 589.37,-492.15 579.18,-403.25"/>
<polygon fill="black" stroke="black" points="582.65,-402.72 578.03,-393.18 575.69,-403.51 582.65,-402.72"/>
</g>
<!-- 61 -->
<g id="61" class="node">
<title>61</title>
<polygon fill="none" stroke="black" points="755,-681 647,-681 647,-609 755,-609 755,-681"/>
<text text-anchor="middle" x="701" y="-644" font-family="Times,serif" font-size="5.00">61: Projects service</text>
</g>
<!-- 38&#45;&gt;61 -->
<g id="63" class="edge">
<title>38&#45;&gt;61</title>
<path fill="none" stroke="black" d="M701,-752.9C701,-734.3 701,-711.23 701,-691.29"/>
<polygon fill="black" stroke="black" points="704.5,-691.19 701,-681.19 697.5,-691.19 704.5,-691.19"/>
</g>
<!-- 72 -->
<g id="72" class="node">
<title>72</title>
<polygon fill="none" stroke="black" points="935,-681 827,-681 827,-609 935,-609 935,-681"/>
<text text-anchor="middle" x="881" y="-644" font-family="Times,serif" font-size="5.00">72: Institution Service</text>
</g>
<!-- 38&#45;&gt;72 -->
<g id="74" class="edge">
<title>38&#45;&gt;72</title>
<path fill="none" stroke="black" d="M745.49,-752.9C770.59,-733.1 802.09,-708.25 828.41,-687.49"/>
<polygon fill="black" stroke="black" points="830.71,-690.13 836.39,-681.19 826.37,-684.64 830.71,-690.13"/>
</g>
<!-- 64 -->
<g id="64" class="node">
<title>64</title>
<polygon fill="none" stroke="black" points="1115,-681 1007,-681 1007,-609 1115,-609 1115,-681"/>
<text text-anchor="middle" x="1061" y="-644" font-family="Times,serif" font-size="5.00">64: Publication Channel Service</text>
</g>
<!-- 38&#45;&gt;64 -->
<g id="66" class="edge">
<title>38&#45;&gt;64</title>
<path fill="none" stroke="black" d="M755.29,-766.59C820.2,-740.98 928.67,-698.2 997.43,-671.07"/>
<polygon fill="black" stroke="black" points="998.84,-674.28 1006.86,-667.35 996.28,-667.77 998.84,-674.28"/>
</g>
<!-- 75 -->
<g id="75" class="node">
<title>75</title>
<polygon fill="none" stroke="black" points="1295,-681 1187,-681 1187,-609 1295,-609 1295,-681"/>
<text text-anchor="middle" x="1241" y="-644" font-family="Times,serif" font-size="5.00">75: File Service</text>
</g>
<!-- 38&#45;&gt;75 -->
<g id="78" class="edge">
<title>38&#45;&gt;75</title>
<path fill="none" stroke="black" d="M755.28,-775.09C874.97,-746.63 1151,-681 1151,-681 1151,-681 1162.5,-676.53 1177.28,-670.78"/>
<polygon fill="black" stroke="black" points="1178.78,-673.95 1186.83,-667.07 1176.24,-667.43 1178.78,-673.95"/>
</g>
<!-- 38&#45;&gt;43 -->
<g id="44" class="edge">
<title>38&#45;&gt;43</title>
<path fill="none" stroke="black" d="M755.26,-778.78C908.07,-752.83 1331,-681 1331,-681 1331,-681 1331,-465 1331,-465 1331,-465 745.16,-291.39 547.92,-232.94"/>
<polygon fill="black" stroke="black" points="548.85,-229.57 538.27,-230.08 546.87,-236.28 548.85,-229.57"/>
</g>
<!-- 49&#45;&gt;43 -->
<g id="52" class="edge">
<title>49&#45;&gt;43</title>
<path fill="none" stroke="black" d="M551.75,-320.9C539.64,-301.78 524.54,-277.96 511.67,-257.65"/>
<polygon fill="black" stroke="black" points="514.61,-255.76 506.3,-249.19 508.7,-259.51 514.61,-255.76"/>
</g>
<!-- 39 -->
<g id="39" class="node">
<title>39</title>
<polygon fill="none" stroke="black" points="755,-969 647,-969 647,-897 755,-897 755,-969"/>
<text text-anchor="middle" x="701" y="-932" font-family="Times,serif" font-size="5.00">39: Single Page App</text>
</g>
<!-- 39&#45;&gt;38 -->
<g id="40" class="edge">
<title>39&#45;&gt;38</title>
<path fill="none" stroke="black" d="M701,-896.9C701,-878.3 701,-855.23 701,-835.29"/>
<polygon fill="black" stroke="black" points="704.5,-835.19 701,-825.19 697.5,-835.19 704.5,-835.19"/>
</g>
<!-- 70 -->
<g id="70" class="node">
<title>70</title>
<polygon fill="none" stroke="black" points="141,-825 33,-825 33,-753 141,-753 141,-825"/>
<text text-anchor="middle" x="87" y="-788" font-family="Times,serif" font-size="5.00">70: Post Authentication Service</text>
</g>
<!-- 70&#45;&gt;67 -->
<g id="71" class="edge">
<title>70&#45;&gt;67</title>
<path fill="none" stroke="black" d="M87,-752.9C87,-734.3 87,-711.23 87,-691.29"/>
<polygon fill="black" stroke="black" points="90.5,-691.19 87,-681.19 83.5,-691.19 90.5,-691.19"/>
</g>
<!-- 76 -->
<g id="76" class="node">
<title>76</title>
<polygon fill="none" stroke="black" points="1295,-537 1187,-537 1187,-465 1295,-465 1295,-537"/>
<text text-anchor="middle" x="1241" y="-500" font-family="Times,serif" font-size="5.00">76: Blob storage</text>
</g>
<!-- 75&#45;&gt;76 -->
<g id="77" class="edge">
<title>75&#45;&gt;76</title>
<path fill="none" stroke="black" d="M1241,-608.9C1241,-590.3 1241,-567.23 1241,-547.29"/>
<polygon fill="black" stroke="black" points="1244.5,-547.19 1241,-537.19 1237.5,-547.19 1244.5,-547.19"/>
</g>
<!-- 43&#45;&gt;45 -->
<g id="46" class="edge">
<title>43&#45;&gt;45</title>
<path fill="none" stroke="black" d="M484,-176.9C484,-158.3 484,-135.23 484,-115.29"/>
<polygon fill="black" stroke="black" points="487.5,-115.19 484,-105.19 480.5,-115.19 487.5,-115.19"/>
</g>
<!-- 54&#45;&gt;43 -->
<g id="56" class="edge">
<title>54&#45;&gt;43</title>
<path fill="none" stroke="black" d="M416.25,-320.9C428.36,-301.78 443.46,-277.96 456.33,-257.65"/>
<polygon fill="black" stroke="black" points="459.3,-259.51 461.7,-249.19 453.39,-255.76 459.3,-259.51"/>
</g>
</g>
</svg>
