<?xml version="1.0" encoding="UTF-8" standalone="no"?>
<!DOCTYPE svg PUBLIC "-//W3C//DTD SVG 1.1//EN"
 "http://www.w3.org/Graphics/SVG/1.1/DTD/svg11.dtd">
<!-- Generated by graphviz version 2.44.1 (20200629.0846)
 -->
<!-- Pages: 1 -->
<svg width="1556pt" height="368pt"
 viewBox="0.00 0.00 1556.00 368.00" xmlns="http://www.w3.org/2000/svg" xmlns:xlink="http://www.w3.org/1999/xlink">
<g id="graph0" class="graph" transform="scale(1 1) rotate(0) translate(4 364)">
<polygon fill="white" stroke="transparent" points="-4,4 -4,-364 1552,-364 1552,4 -4,4"/>
<!-- 22 -->
<g id="22" class="node">
<title>22</title>
<polygon fill="none" stroke="black" points="108,-360 0,-360 0,-288 108,-288 108,-360"/>
<text text-anchor="middle" x="54" y="-323" font-family="Times,serif" font-size="5.00">22: Web crawler</text>
</g>
<!-- 1 -->
<g id="1" class="node">
<title>1</title>
<polygon fill="none" stroke="black" points="828,-216 720,-216 720,-144 828,-144 828,-216"/>
<text text-anchor="middle" x="774" y="-179" font-family="Times,serif" font-size="5.00">1: NvaCore</text>
</g>
<!-- 22&#45;&gt;1 -->
<g id="23" class="edge">
<title>22&#45;&gt;1</title>
<path fill="none" stroke="black" d="M108.17,-301.93C127.23,-294.52 144,-288 144,-288 144,-288 548.95,-219.22 709.52,-191.95"/>
<polygon fill="black" stroke="black" points="710.47,-195.34 719.74,-190.22 709.3,-188.44 710.47,-195.34"/>
</g>
<!-- 12 -->
<g id="12" class="node">
<title>12</title>
<polygon fill="none" stroke="black" points="108,-72 0,-72 0,0 108,0 108,-72"/>
<text text-anchor="middle" x="54" y="-35" font-family="Times,serif" font-size="5.00">12: NSD DBH</text>
</g>
<!-- 34 -->
<g id="34" class="node">
<title>34</title>
<polygon fill="none" stroke="black" points="288,-360 180,-360 180,-288 288,-288 288,-360"/>
<text text-anchor="middle" x="234" y="-323" font-family="Times,serif" font-size="5.00">34: Student dissertations</text>
</g>
<!-- 34&#45;&gt;1 -->
<g id="35" class="edge">
<title>34&#45;&gt;1</title>
<path fill="none" stroke="black" d="M288.17,-301.93C307.23,-294.52 324,-288 324,-288 324,-288 585.67,-225.78 709.93,-196.23"/>
<polygon fill="black" stroke="black" points="710.8,-199.63 719.72,-193.91 709.18,-192.81 710.8,-199.63"/>
</g>
<!-- 24 -->
<g id="24" class="node">
<title>24</title>
<polygon fill="none" stroke="black" points="468,-360 360,-360 360,-288 468,-288 468,-360"/>
<text text-anchor="middle" x="414" y="-323" font-family="Times,serif" font-size="5.00">24: Creator</text>
</g>
<!-- 24&#45;&gt;1 -->
<g id="25" class="edge">
<title>24&#45;&gt;1</title>
<path fill="none" stroke="black" d="M468.29,-301.59C533.2,-275.98 641.67,-233.2 710.43,-206.07"/>
<polygon fill="black" stroke="black" points="711.84,-209.28 719.86,-202.35 709.28,-202.77 711.84,-209.28"/>
</g>
<!-- 14 -->
<g id="14" class="node">
<title>14</title>
<polygon fill="none" stroke="black" points="288,-72 180,-72 180,0 288,0 288,-72"/>
<text text-anchor="middle" x="234" y="-35" font-family="Times,serif" font-size="5.00">14: CrossRef</text>
</g>
<!-- 36 -->
<g id="36" class="node">
<title>36</title>
<polygon fill="none" stroke="black" points="648,-360 540,-360 540,-288 648,-288 648,-360"/>
<text text-anchor="middle" x="594" y="-323" font-family="Times,serif" font-size="5.00">36: Institutional archive</text>
</g>
<!-- 36&#45;&gt;1 -->
<g id="37" class="edge">
<title>36&#45;&gt;1</title>
<path fill="none" stroke="black" d="M638.49,-287.9C663.59,-268.1 695.09,-243.25 721.41,-222.49"/>
<polygon fill="black" stroke="black" points="723.71,-225.13 729.39,-216.19 719.37,-219.64 723.71,-225.13"/>
</g>
<!-- 26 -->
<g id="26" class="node">
<title>26</title>
<polygon fill="none" stroke="black" points="828,-360 720,-360 720,-288 828,-288 828,-360"/>
<text text-anchor="middle" x="774" y="-323" font-family="Times,serif" font-size="5.00">26: Curator</text>
</g>
<!-- 26&#45;&gt;1 -->
<g id="27" class="edge">
<title>26&#45;&gt;1</title>
<path fill="none" stroke="black" d="M774,-287.9C774,-269.3 774,-246.23 774,-226.29"/>
<polygon fill="black" stroke="black" points="777.5,-226.19 774,-216.19 770.5,-226.19 777.5,-226.19"/>
</g>
<!-- 16 -->
<g id="16" class="node">
<title>16</title>
<polygon fill="none" stroke="black" points="468,-72 360,-72 360,0 468,0 468,-72"/>
<text text-anchor="middle" x="414" y="-35" font-family="Times,serif" font-size="5.00">16: Datacite</text>
</g>
<!-- 28 -->
<g id="28" class="node">
<title>28</title>
<polygon fill="none" stroke="black" points="1008,-360 900,-360 900,-288 1008,-288 1008,-360"/>
<text text-anchor="middle" x="954" y="-323" font-family="Times,serif" font-size="5.00">28: Editor</text>
</g>
<!-- 28&#45;&gt;1 -->
<g id="29" class="edge">
<title>28&#45;&gt;1</title>
<path fill="none" stroke="black" d="M909.51,-287.9C884.41,-268.1 852.91,-243.25 826.59,-222.49"/>
<polygon fill="black" stroke="black" points="828.63,-219.64 818.61,-216.19 824.29,-225.13 828.63,-219.64"/>
</g>
<!-- 18 -->
<g id="18" class="node">
<title>18</title>
<polygon fill="none" stroke="black" points="648,-72 540,-72 540,0 648,0 648,-72"/>
<text text-anchor="middle" x="594" y="-35" font-family="Times,serif" font-size="5.00">18: Institution Source</text>
</g>
<!-- 1&#45;&gt;12 -->
<g id="13" class="edge">
<title>1&#45;&gt;12</title>
<path fill="none" stroke="black" d="M719.74,-169.78C566.93,-143.83 144,-72 144,-72 144,-72 132.5,-67.53 117.72,-61.78"/>
<polygon fill="black" stroke="black" points="118.76,-58.43 108.17,-58.07 116.22,-64.95 118.76,-58.43"/>
</g>
<!-- 1&#45;&gt;14 -->
<g id="15" class="edge">
<title>1&#45;&gt;14</title>
<path fill="none" stroke="black" d="M719.72,-166.09C600.03,-137.63 324,-72 324,-72 324,-72 312.5,-67.53 297.72,-61.78"/>
<polygon fill="black" stroke="black" points="298.76,-58.43 288.17,-58.07 296.22,-64.95 298.76,-58.43"/>
</g>
<!-- 1&#45;&gt;16 -->
<g id="17" class="edge">
<title>1&#45;&gt;16</title>
<path fill="none" stroke="black" d="M719.71,-157.59C654.8,-131.98 546.33,-89.2 477.57,-62.07"/>
<polygon fill="black" stroke="black" points="478.72,-58.77 468.14,-58.35 476.16,-65.28 478.72,-58.77"/>
</g>
<!-- 1&#45;&gt;18 -->
<g id="19" class="edge">
<title>1&#45;&gt;18</title>
<path fill="none" stroke="black" d="M729.51,-143.9C704.41,-124.1 672.91,-99.25 646.59,-78.49"/>
<polygon fill="black" stroke="black" points="648.63,-75.64 638.61,-72.19 644.29,-81.13 648.63,-75.64"/>
</g>
<!-- 2 -->
<g id="2" class="node">
<title>2</title>
<polygon fill="none" stroke="black" points="828,-72 720,-72 720,0 828,0 828,-72"/>
<text text-anchor="middle" x="774" y="-35" font-family="Times,serif" font-size="5.00">2: Cristin projects API</text>
</g>
<!-- 1&#45;&gt;2 -->
<g id="3" class="edge">
<title>1&#45;&gt;2</title>
<path fill="none" stroke="black" d="M774,-143.9C774,-125.3 774,-102.23 774,-82.29"/>
<polygon fill="black" stroke="black" points="777.5,-82.19 774,-72.19 770.5,-82.19 777.5,-82.19"/>
</g>
<!-- 4 -->
<g id="4" class="node">
<title>4</title>
<polygon fill="none" stroke="black" points="1008,-72 900,-72 900,0 1008,0 1008,-72"/>
<text text-anchor="middle" x="954" y="-35" font-family="Times,serif" font-size="5.00">4: BIBSYS BARE/ARP</text>
</g>
<!-- 1&#45;&gt;4 -->
<g id="5" class="edge">
<title>1&#45;&gt;4</title>
<path fill="none" stroke="black" d="M818.49,-143.9C843.59,-124.1 875.09,-99.25 901.41,-78.49"/>
<polygon fill="black" stroke="black" points="903.71,-81.13 909.39,-72.19 899.37,-75.64 903.71,-81.13"/>
</g>
<!-- 6 -->
<g id="6" class="node">
<title>6</title>
<polygon fill="none" stroke="black" points="1188,-72 1080,-72 1080,0 1188,0 1188,-72"/>
<text text-anchor="middle" x="1134" y="-35" font-family="Times,serif" font-size="5.00">6: Authentication Source</text>
</g>
<!-- 1&#45;&gt;6 -->
<g id="7" class="edge">
<title>1&#45;&gt;6</title>
<path fill="none" stroke="black" d="M828.29,-157.59C893.2,-131.98 1001.67,-89.2 1070.43,-62.07"/>
<polygon fill="black" stroke="black" points="1071.84,-65.28 1079.86,-58.35 1069.28,-58.77 1071.84,-65.28"/>
</g>
<!-- 8 -->
<g id="8" class="node">
<title>8</title>
<polygon fill="none" stroke="black" points="1368,-72 1260,-72 1260,0 1368,0 1368,-72"/>
<text text-anchor="middle" x="1314" y="-35" font-family="Times,serif" font-size="5.00">8: Orcid</text>
</g>
<!-- 1&#45;&gt;8 -->
<g id="9" class="edge">
<title>1&#45;&gt;8</title>
<path fill="none" stroke="black" d="M828.28,-166.09C947.97,-137.63 1224,-72 1224,-72 1224,-72 1235.5,-67.53 1250.28,-61.78"/>
<polygon fill="black" stroke="black" points="1251.78,-64.95 1259.83,-58.07 1249.24,-58.43 1251.78,-64.95"/>
</g>
<!-- 10 -->
<g id="10" class="node">
<title>10</title>
<polygon fill="none" stroke="black" points="1548,-72 1440,-72 1440,0 1548,0 1548,-72"/>
<text text-anchor="middle" x="1494" y="-35" font-family="Times,serif" font-size="5.00">10: BIBSYS Library system</text>
</g>
<!-- 1&#45;&gt;10 -->
<g id="11" class="edge">
<title>1&#45;&gt;10</title>
<path fill="none" stroke="black" d="M828.26,-169.78C981.07,-143.83 1404,-72 1404,-72 1404,-72 1415.5,-67.53 1430.28,-61.78"/>
<polygon fill="black" stroke="black" points="1431.78,-64.95 1439.83,-58.07 1429.24,-58.43 1431.78,-64.95"/>
</g>
<!-- 30 -->
<g id="30" class="node">
<title>30</title>
<polygon fill="none" stroke="black" points="1188,-360 1080,-360 1080,-288 1188,-288 1188,-360"/>
<text text-anchor="middle" x="1134" y="-323" font-family="Times,serif" font-size="5.00">30: Aministrator</text>
</g>
<!-- 30&#45;&gt;1 -->
<g id="31" class="edge">
<title>30&#45;&gt;1</title>
<path fill="none" stroke="black" d="M1079.71,-301.59C1014.8,-275.98 906.33,-233.2 837.57,-206.07"/>
<polygon fill="black" stroke="black" points="838.72,-202.77 828.14,-202.35 836.16,-209.28 838.72,-202.77"/>
</g>
<!-- 20 -->
<g id="20" class="node">
<title>20</title>
<polygon fill="none" stroke="black" points="1368,-360 1260,-360 1260,-288 1368,-288 1368,-360"/>
<text text-anchor="middle" x="1314" y="-323" font-family="Times,serif" font-size="5.00">20: Anonymous User</text>
</g>
<!-- 20&#45;&gt;1 -->
<g id="21" class="edge">
<title>20&#45;&gt;1</title>
<path fill="none" stroke="black" d="M1259.83,-301.93C1240.77,-294.52 1224,-288 1224,-288 1224,-288 962.33,-225.78 838.07,-196.23"/>
<polygon fill="black" stroke="black" points="838.82,-192.81 828.28,-193.91 837.2,-199.63 838.82,-192.81"/>
</g>
<!-- 32 -->
<g id="32" class="node">
<title>32</title>
<polygon fill="none" stroke="black" points="1548,-360 1440,-360 1440,-288 1548,-288 1548,-360"/>
<text text-anchor="middle" x="1494" y="-323" font-family="Times,serif" font-size="5.00">32: System Aministrator</text>
</g>
<!-- 32&#45;&gt;1 -->
<g id="33" class="edge">
<title>32&#45;&gt;1</title>
<path fill="none" stroke="black" d="M1439.83,-301.93C1420.77,-294.52 1404,-288 1404,-288 1404,-288 999.05,-219.22 838.48,-191.95"/>
<polygon fill="black" stroke="black" points="838.7,-188.44 828.26,-190.22 837.53,-195.34 838.7,-188.44"/>
</g>
</g>
</svg>
